<svg width="22" height="23" viewBox="0 0 22 23" fill="none" xmlns="http://www.w3.org/2000/svg">
<path d="M4.625 0.5C4.68067 0.5 4.71991 0.503245 4.74512 0.506836C4.74867 0.507345 4.75225 0.507357 4.75488 0.507812C4.75612 0.509004 4.75739 0.510339 4.75879 0.511719C4.78749 0.540104 4.83159 0.592043 4.89062 0.676758C5.00855 0.846002 5.15632 1.10329 5.33398 1.45898L5.34082 1.47266L5.34863 1.48535C5.45975 1.67717 5.6134 1.95405 5.81055 2.31738V2.31836C6.00924 2.6844 6.19296 3.01768 6.36133 3.31738C6.53008 3.61783 6.69371 3.90103 6.85254 4.16602L6.86523 4.1875L6.88086 4.20801C6.9052 4.24059 6.98976 4.36128 7.14355 4.58398C7.28732 4.79238 7.3834 4.9529 7.44043 5.07129V5.07227C7.48542 5.16566 7.5 5.24065 7.5 5.30078C7.49805 5.31029 7.48892 5.34314 7.4541 5.4043C7.40648 5.48789 7.32386 5.59874 7.19238 5.7373C6.98437 5.95627 6.76271 6.16185 6.52734 6.35352L6.28711 6.54102C5.92092 6.81437 5.58023 7.10585 5.2666 7.41406C5.10188 7.57603 4.961 7.74053 4.8584 7.90625C4.75827 8.06801 4.67198 8.26711 4.67188 8.48926C4.67188 8.66721 4.71968 8.84802 4.78125 9.01465C4.83515 9.16049 4.88689 9.28736 4.93555 9.38477C4.98343 9.48089 5.06722 9.62397 5.17578 9.7998C5.23006 9.88777 5.27195 9.9553 5.30078 10.0029C5.31527 10.0269 5.32586 10.0454 5.33301 10.0576L5.33887 10.0674L5.34375 10.0771C6.05375 11.358 6.85763 12.485 7.75586 13.4561L8.14648 13.8623C9.20429 14.9203 10.4671 15.8549 11.9297 16.667L11.9385 16.6719L11.9414 16.6729C11.9348 16.6694 11.9353 16.6696 11.9492 16.6777C11.9615 16.685 11.9792 16.6956 12.0029 16.71C12.0507 16.7389 12.1186 16.7804 12.207 16.835V16.834C12.3841 16.9437 12.5243 17.0277 12.6182 17.0752L12.624 17.0771C12.7189 17.1237 12.8429 17.1758 12.9902 17.2305H12.9912C13.1571 17.2916 13.3384 17.3398 13.5166 17.3398C13.7387 17.3398 13.9379 17.2535 14.0996 17.1533C14.2653 17.0506 14.4298 16.9091 14.5918 16.7441C14.8995 16.4304 15.1905 16.0895 15.4639 15.7227C15.707 15.3962 15.9739 15.094 16.2656 14.8164L16.2666 14.8174C16.4052 14.6857 16.5161 14.6024 16.5996 14.5547C16.6854 14.5058 16.7159 14.5088 16.7031 14.5088C16.763 14.5088 16.8379 14.5233 16.9316 14.5684C17.0501 14.6256 17.2107 14.7216 17.4189 14.8652V14.8662C17.6425 15.021 17.7623 15.1042 17.7939 15.1279L17.8145 15.1436L17.8369 15.1572C18.1016 15.316 18.3843 15.4805 18.6855 15.6494V15.6484C18.9847 15.8166 19.3176 16.0004 19.6836 16.1992C20.0472 16.3969 20.3236 16.551 20.5146 16.6621L20.5283 16.6699L20.542 16.6768C20.8974 16.8544 21.1542 17.0022 21.3232 17.1201C21.4079 17.1792 21.4599 17.2232 21.4883 17.252C21.49 17.2537 21.4917 17.2553 21.4932 17.2568C21.4936 17.2593 21.4927 17.2624 21.4932 17.2656C21.4967 17.2906 21.5001 17.3298 21.5 17.3857V17.3877C21.5 17.6152 21.457 17.9406 21.3564 18.377V18.3779C21.2554 18.8178 21.1551 19.1399 21.0586 19.3584H21.0576L21.0547 19.3672C20.9859 19.5313 20.8326 19.7407 20.5469 19.9893C20.3348 20.1737 20.0624 20.3686 19.7256 20.5732L19.3711 20.7783C18.4531 21.2766 17.5653 21.5156 16.7031 21.5156C16.4442 21.5156 16.1933 21.4987 15.9502 21.4658H15.9512C15.7137 21.433 15.4375 21.3735 15.1201 21.2842C14.7892 21.1908 14.5541 21.1189 14.4092 21.0674L13.5508 20.75C13.1515 20.5997 12.8894 20.5036 12.7773 20.4658H12.7783C11.7863 20.111 10.9073 19.6926 10.1396 19.2139L10.1377 19.2129L9.65039 18.8994C8.50732 18.1356 7.3223 17.1424 6.0957 15.915C4.694 14.5123 3.59819 13.1635 2.80078 11.8701L2.79883 11.8682C2.32041 11.1 1.903 10.221 1.54883 9.22852C1.51125 9.11739 1.41436 8.85501 1.26465 8.45508C1.10826 8.03776 1.00371 7.7523 0.948242 7.5957C0.922584 7.52325 0.891456 7.42856 0.855469 7.31055L0.731445 6.88477C0.642134 6.56731 0.582385 6.29029 0.549805 6.05273C0.516622 5.81036 0.5 5.55921 0.5 5.2998C0.500072 4.43817 0.737978 3.55149 1.23438 2.63477C1.51574 2.1271 1.78061 1.73613 2.02637 1.45312C2.27453 1.16744 2.48296 1.01404 2.64648 0.945312V0.946289L2.65527 0.942383C2.81965 0.869928 3.04195 0.795237 3.32812 0.719727L3.63574 0.643555C4.07222 0.543002 4.39772 0.500035 4.625 0.5Z" fill="#78C081" stroke="#577A5B"/>
</svg>
