<svg width="24" height="31" viewBox="0 0 24 31" fill="none" xmlns="http://www.w3.org/2000/svg">
<g clip-path="url(#clip0_86_1746)">
<path d="M12 0.5C15.0537 0.504089 17.9782 1.68125 20.1328 3.76855C22.1524 5.72505 23.3413 8.33107 23.4854 11.0752L23.5 11.626C23.4998 13.6064 22.8347 15.7459 21.7969 17.8701C20.7609 19.9905 19.3689 22.0646 17.9541 23.9043C15.1243 27.5839 12.2336 30.2858 12.0049 30.498L12.002 30.5H11.998L11.9951 30.498L11.3672 29.8955C10.3251 28.8737 8.16833 26.6641 6.0459 23.9043C4.63106 22.0646 3.23907 19.9905 2.20312 17.8701C1.16534 15.7459 0.500218 13.6064 0.5 11.626C0.504032 8.6817 1.71298 5.85548 3.86719 3.76855C6.02182 1.68125 8.94629 0.504089 12 0.5ZM14.291 6.23828C13.1966 5.79914 11.9928 5.68452 10.832 5.9082C9.67129 6.13194 8.60269 6.6843 7.7627 7.49805C6.92246 8.31204 6.34897 9.35175 6.11621 10.4854C5.88352 11.6189 6.0029 12.7936 6.45898 13.8604C6.91508 14.9271 7.68647 15.8361 8.67285 16.4746C9.65908 17.113 10.8168 17.4531 12 17.4531C13.5859 17.4522 15.1102 16.8419 16.2363 15.751C17.3629 14.6596 17.999 13.1755 18 11.625L17.9961 11.4082C17.9547 10.328 17.6043 9.27962 16.9844 8.38086C16.3232 7.42238 15.3854 6.67744 14.291 6.23828Z" fill="#78C081" stroke="#577A5B"/>
</g>
<defs>
<clipPath id="clip0_86_1746">
<rect width="24" height="31" fill="white"/>
</clipPath>
</defs>
</svg>
