<svg width="25" height="34" viewBox="0 0 25 34" fill="none" xmlns="http://www.w3.org/2000/svg">
<g opacity="0.85">
<path d="M2.32415 33.8767C1.70874 30.8347 5.5243 20.6901 12.6631 15.3666C16.962 12.0905 20.4319 7.86364 22.7969 3.02203V2.84549C21.6755 5.1949 10.092 5.56157 3.33616 12.9357C-3.28295 20.1605 2.00961 33.1977 2.32415 33.8767Z" fill="url(#paint0_linear_86_448)"/>
<path d="M12.6629 15.4209C5.53783 20.7445 1.70859 30.889 2.324 33.8767C3.69159 28.526 15.0836 25.0766 19.5693 20.5272C25.4088 14.6333 23.1523 4.47514 22.7831 2.98129C20.4345 7.85592 16.9685 12.1163 12.6629 15.4209Z" fill="url(#paint1_linear_86_448)"/>
<path d="M20.1709 7.7887L14.0441 7.87018L20.0615 7.38129C20.1356 7.37957 20.2084 7.4009 20.2697 7.4423C20.331 7.48369 20.3778 7.54308 20.4034 7.61215C20.4139 7.64352 20.4171 7.67685 20.4126 7.7096C20.4082 7.74236 20.3963 7.77368 20.3778 7.80118C20.3594 7.82868 20.3348 7.85163 20.3061 7.8683C20.2773 7.88496 20.2451 7.89489 20.212 7.89734L20.1709 7.7887Z" fill="url(#paint2_linear_86_448)"/>
<path d="M17.5317 10.8988L10.4066 11.0618L17.4223 10.505C17.4973 10.4987 17.5722 10.5182 17.6344 10.5602C17.6967 10.6023 17.7425 10.6643 17.7642 10.7358C17.7751 10.7664 17.7784 10.7991 17.774 10.8313C17.7696 10.8634 17.7575 10.894 17.7388 10.9206C17.7201 10.9471 17.6953 10.9689 17.6664 10.984C17.6375 10.9991 17.6054 11.0071 17.5727 11.0074L17.5317 10.8988Z" fill="url(#paint3_linear_86_448)"/>
<path d="M14.2082 14.3618L7.26091 14.0087H14.0988C14.1722 14.0124 14.2425 14.0395 14.2991 14.086C14.3558 14.1325 14.3958 14.1959 14.4134 14.2667C14.4195 14.2985 14.4184 14.3312 14.4102 14.3624C14.4019 14.3937 14.3868 14.4227 14.3658 14.4475C14.3449 14.4722 14.3186 14.4919 14.289 14.5053C14.2594 14.5187 14.2271 14.5253 14.1946 14.5247L14.2082 14.3618Z" fill="url(#paint4_linear_86_448)"/>
<path d="M11.008 17.0643L3.62307 18.8297L10.8302 16.684C10.9027 16.6699 10.9779 16.6794 11.0445 16.7113C11.111 16.7431 11.1654 16.7955 11.1995 16.8606C11.2152 16.8886 11.2245 16.9197 11.2267 16.9517C11.2289 16.9836 11.2239 17.0157 11.2122 17.0456C11.2004 17.0754 11.1821 17.1023 11.1586 17.1243C11.1352 17.1464 11.1071 17.1629 11.0764 17.1729L11.008 17.0643Z" fill="url(#paint5_linear_86_448)"/>
<path d="M8.27293 19.889L2.47437 22.3335H2.39231L7.94471 19.5359C8.01338 19.5064 8.09015 19.5011 8.16228 19.5209C8.23441 19.5407 8.29757 19.5843 8.34131 19.6446C8.35519 19.6875 8.35611 19.7335 8.34396 19.777C8.33181 19.8204 8.30712 19.8594 8.27293 19.889Z" fill="url(#paint6_linear_86_448)"/>
<path d="M5.61994 24.1939L2.72067 25.6199C2.72067 25.6199 2.72066 25.6199 2.65228 25.6199L5.26437 23.7594C5.32514 23.7209 5.39824 23.7066 5.46917 23.7191C5.5401 23.7317 5.60368 23.7703 5.6473 23.8273C5.67553 23.8474 5.69854 23.8739 5.7144 23.9046C5.73027 23.9353 5.73855 23.9693 5.73855 24.0038C5.73855 24.0383 5.73027 24.0723 5.7144 24.103C5.69854 24.1337 5.67553 24.1602 5.6473 24.1804L5.61994 24.1939Z" fill="url(#paint7_linear_86_448)"/>
<path d="M21.5249 13.6148L19.8564 8.07398C19.8456 8.04341 19.8422 8.0107 19.8466 7.97857C19.851 7.94644 19.8631 7.91582 19.8818 7.88926C19.9005 7.86269 19.9254 7.84095 19.9543 7.82584C19.9831 7.81073 20.0153 7.80268 20.0479 7.80238C20.1229 7.79609 20.1978 7.8156 20.2601 7.85763C20.3223 7.89966 20.3681 7.96167 20.3898 8.03324L21.6343 13.6284C21.6169 13.6376 21.597 13.6412 21.5774 13.6388C21.5578 13.6364 21.5395 13.628 21.5249 13.6148Z" fill="url(#paint8_linear_86_448)"/>
<path d="M18.3932 16.6976L16.7794 11.1704C16.7712 11.1388 16.7702 11.1058 16.7766 11.0738C16.783 11.0419 16.7965 11.0117 16.8162 10.9856C16.8359 10.9595 16.8613 10.9382 16.8904 10.9232C16.9196 10.9081 16.9518 10.8998 16.9846 10.8988C17.0578 10.8932 17.1307 10.9132 17.1907 10.9553C17.2507 10.9975 17.2938 11.0592 17.3128 11.1297L18.4889 16.6841L18.3932 16.6976Z" fill="url(#paint9_linear_86_448)"/>
<path d="M15.6305 19.1828L14.0851 14.2531C14.0746 14.2217 14.0715 14.1884 14.0759 14.1557C14.0803 14.1229 14.0922 14.0916 14.1107 14.0641C14.1292 14.0366 14.1537 14.0136 14.1825 13.997C14.2112 13.9803 14.2434 13.9704 14.2766 13.9679C14.3511 13.9641 14.4249 13.9845 14.4867 14.0262C14.5484 14.0679 14.5947 14.1285 14.6185 14.1988L15.7399 19.1692C15.7399 19.1692 15.6442 19.21 15.6305 19.1828Z" fill="url(#paint10_linear_86_448)"/>
<path d="M12.6902 22.3878L10.3653 17.2137C10.3524 17.1835 10.3461 17.151 10.3468 17.1183C10.3476 17.0855 10.3553 17.0533 10.3695 17.0238C10.3838 16.9942 10.4042 16.968 10.4294 16.9469C10.4546 16.9258 10.484 16.9103 10.5157 16.9013C10.5896 16.8905 10.665 16.903 10.7313 16.9372C10.7975 16.9713 10.8513 17.0253 10.885 17.0914L12.7859 22.3742C12.775 22.3886 12.7588 22.3981 12.7409 22.4007C12.732 22.4019 12.7229 22.4015 12.7142 22.3992C12.7055 22.397 12.6974 22.3931 12.6902 22.3878Z" fill="url(#paint11_linear_86_448)"/>
<path d="M9.21655 24.4927L7.75323 19.9704C7.74274 19.939 7.73959 19.9057 7.74402 19.873C7.74846 19.8402 7.76036 19.8089 7.77882 19.7814C7.79728 19.7539 7.82182 19.7309 7.85056 19.7143C7.87931 19.6976 7.9115 19.6877 7.94469 19.6852C8.01758 19.6804 8.0901 19.6989 8.15163 19.738C8.21315 19.7771 8.26045 19.8348 8.28659 19.9025L9.32595 24.4655C9.31296 24.481 9.29536 24.4919 9.2757 24.4968C9.25604 24.5017 9.23533 24.5002 9.21655 24.4927Z" fill="url(#paint12_linear_86_448)"/>
<path d="M6.49523 27.0866L5.12765 23.9903C5.1149 23.9592 5.10912 23.9258 5.1107 23.8923C5.11229 23.8588 5.1212 23.8261 5.13681 23.7963C5.15243 23.7666 5.17438 23.7406 5.20114 23.7202C5.2279 23.6997 5.25882 23.6853 5.29176 23.6779C5.36524 23.6691 5.43964 23.6842 5.50376 23.7209C5.56788 23.7576 5.61826 23.814 5.64733 23.8816L6.60464 27.0866C6.59827 27.095 6.59001 27.1019 6.58052 27.1066C6.57102 27.1113 6.56055 27.1138 6.54993 27.1138C6.53932 27.1138 6.52885 27.1113 6.51936 27.1066C6.50986 27.1019 6.5016 27.095 6.49523 27.0866Z" fill="url(#paint13_linear_86_448)"/>
<path d="M24.4379 0.754164V0.862803L24.3148 1.18873C24.1917 1.46034 24.0276 1.86776 23.7951 2.35665C23.1551 3.727 22.4289 5.05599 21.6207 6.33571C20.4708 8.13678 19.1668 9.83609 17.723 11.4148C16.9036 12.3118 16.0314 13.1598 15.111 13.9543L14.3861 14.5654L13.6476 15.163L12.1296 16.3037C11.1626 17.0798 10.2489 17.9192 9.39445 18.8161C8.59392 19.6734 7.84935 20.5806 7.16528 21.5322C5.96839 23.2711 4.96422 25.1334 4.17027 27.0866C3.57853 28.4633 3.09835 29.8847 2.73431 31.3372C2.59755 31.8804 2.50182 32.3014 2.44711 32.5866L2.36506 33.0212C2.36506 33.0891 2.36506 33.1163 2.24198 33.1027C2.11889 33.0891 2.13257 33.0212 2.14625 32.9669C2.15992 32.9126 2.14625 32.8039 2.21463 32.5187C2.283 32.2335 2.33771 31.7854 2.46079 31.2557C2.81592 29.7822 3.27287 28.3347 3.82838 26.9236C4.60383 24.9379 5.58946 23.0396 6.76868 21.2606C7.44025 20.264 8.17571 19.3114 8.9705 18.4087C9.81655 17.4657 10.7307 16.5851 11.7057 15.7741L13.1827 14.6062L13.8938 14.0086L14.5913 13.3975C15.4703 12.5909 16.3057 11.7387 17.094 10.8444C18.4811 9.26586 19.7215 7.56591 20.8001 5.76533C21.575 4.50137 22.2605 3.18543 22.8515 1.82701C23.0703 1.33812 23.2207 0.957869 23.3165 0.686262L23.4395 0.373911V0.278845C23.4684 0.218515 23.5095 0.164709 23.5601 0.120745C23.6108 0.0767842 23.67 0.0436001 23.7341 0.0232373C23.7982 0.00287825 23.8658 -0.00423234 23.9327 0.00235946C23.9997 0.00895125 24.0645 0.0291005 24.1233 0.0615597C24.259 0.105444 24.3733 0.197889 24.4441 0.320894C24.5149 0.443903 24.5371 0.588667 24.5063 0.726999L24.4379 0.754164Z" fill="url(#paint14_linear_86_448)"/>
<path d="M2.33762 33.9718C3.7052 28.6211 15.0972 25.1717 19.5829 20.6223C24.766 15.4074 23.5762 6.82458 22.9881 3.90479C23.289 3.33441 23.5489 2.80478 23.754 2.35662C23.9591 1.90847 24.1506 1.46032 24.2737 1.18871L24.3968 0.862776V0.754137C24.4276 0.615801 24.4054 0.471037 24.3346 0.348028C24.2638 0.225023 24.1495 0.132578 24.0138 0.0886937C23.955 0.0562345 23.8902 0.0360891 23.8232 0.0294973C23.7563 0.0229055 23.6887 0.0300084 23.6246 0.0503675C23.5605 0.0707303 23.5013 0.103918 23.4507 0.147883C23.4 0.191843 23.3589 0.245649 23.33 0.305979V0.401041L23.207 0.713396C23.1112 0.985003 22.9608 1.36525 22.742 1.85414C22.5232 2.34304 22.2223 2.9949 21.8667 3.70108C18.817 5.43937 9.20289 6.5258 3.28125 12.9901C-3.29683 20.1605 1.99572 33.1977 2.31027 33.9311L2.33762 33.9718Z" fill="url(#paint15_radial_86_448)" style="mix-blend-mode:screen"/>
</g>
<defs>
<linearGradient id="paint0_linear_86_448" x1="-15.4992" y1="18.1229" x2="16.4959" y2="2.15265" gradientUnits="userSpaceOnUse">
<stop offset="0.08" stop-color="#B0E355"/>
<stop offset="0.21" stop-color="#ADE152"/>
<stop offset="0.32" stop-color="#A2DA4A"/>
<stop offset="0.42" stop-color="#91CE3B"/>
<stop offset="0.52" stop-color="#79BE27"/>
<stop offset="0.61" stop-color="#5AA90D"/>
<stop offset="0.65" stop-color="#4A9F00"/>
<stop offset="1" stop-color="#346D0A"/>
</linearGradient>
<linearGradient id="paint1_linear_86_448" x1="0.542636" y1="32.4746" x2="-0.522855" y2="1.10538" gradientUnits="userSpaceOnUse">
<stop offset="0.08" stop-color="#B0E355"/>
<stop offset="0.21" stop-color="#ADE152"/>
<stop offset="0.32" stop-color="#A2DA4A"/>
<stop offset="0.42" stop-color="#91CE3B"/>
<stop offset="0.52" stop-color="#79BE27"/>
<stop offset="0.61" stop-color="#5AA90D"/>
<stop offset="0.65" stop-color="#4A9F00"/>
<stop offset="1" stop-color="#346D0A"/>
</linearGradient>
<linearGradient id="paint2_linear_86_448" x1="-21.1834" y1="26.2845" x2="1.05212" y2="3.37437" gradientUnits="userSpaceOnUse">
<stop offset="0.08" stop-color="#B0E355"/>
<stop offset="0.21" stop-color="#ADE152"/>
<stop offset="0.32" stop-color="#A2DA4A"/>
<stop offset="0.42" stop-color="#91CE3B"/>
<stop offset="0.52" stop-color="#79BE27"/>
<stop offset="0.61" stop-color="#5AA90D"/>
<stop offset="0.65" stop-color="#4A9F00"/>
<stop offset="1" stop-color="#346D0A"/>
</linearGradient>
<linearGradient id="paint3_linear_86_448" x1="-21.202" y1="26.2684" x2="1.0394" y2="3.35695" gradientUnits="userSpaceOnUse">
<stop offset="0.08" stop-color="#B0E355"/>
<stop offset="0.21" stop-color="#ADE152"/>
<stop offset="0.32" stop-color="#A2DA4A"/>
<stop offset="0.42" stop-color="#91CE3B"/>
<stop offset="0.52" stop-color="#79BE27"/>
<stop offset="0.61" stop-color="#5AA90D"/>
<stop offset="0.65" stop-color="#4A9F00"/>
<stop offset="1" stop-color="#346D0A"/>
</linearGradient>
<linearGradient id="paint4_linear_86_448" x1="-21.2305" y1="26.2365" x2="1.00533" y2="3.32637" gradientUnits="userSpaceOnUse">
<stop offset="0.08" stop-color="#B0E355"/>
<stop offset="0.21" stop-color="#ADE152"/>
<stop offset="0.32" stop-color="#A2DA4A"/>
<stop offset="0.42" stop-color="#91CE3B"/>
<stop offset="0.52" stop-color="#79BE27"/>
<stop offset="0.61" stop-color="#5AA90D"/>
<stop offset="0.65" stop-color="#4A9F00"/>
<stop offset="1" stop-color="#346D0A"/>
</linearGradient>
<linearGradient id="paint5_linear_86_448" x1="-21.1378" y1="26.3275" x2="1.10138" y2="3.41949" gradientUnits="userSpaceOnUse">
<stop offset="0.08" stop-color="#B0E355"/>
<stop offset="0.21" stop-color="#ADE152"/>
<stop offset="0.32" stop-color="#A2DA4A"/>
<stop offset="0.42" stop-color="#91CE3B"/>
<stop offset="0.52" stop-color="#79BE27"/>
<stop offset="0.61" stop-color="#5AA90D"/>
<stop offset="0.65" stop-color="#4A9F00"/>
<stop offset="1" stop-color="#346D0A"/>
</linearGradient>
<linearGradient id="paint6_linear_86_448" x1="-20.5054" y1="26.945" x2="1.73387" y2="4.03703" gradientUnits="userSpaceOnUse">
<stop offset="0.08" stop-color="#B0E355"/>
<stop offset="0.21" stop-color="#ADE152"/>
<stop offset="0.32" stop-color="#A2DA4A"/>
<stop offset="0.42" stop-color="#91CE3B"/>
<stop offset="0.52" stop-color="#79BE27"/>
<stop offset="0.61" stop-color="#5AA90D"/>
<stop offset="0.65" stop-color="#4A9F00"/>
<stop offset="1" stop-color="#346D0A"/>
</linearGradient>
<linearGradient id="paint7_linear_86_448" x1="-19.2113" y1="28.2028" x2="3.02659" y2="5.28917" gradientUnits="userSpaceOnUse">
<stop offset="0.08" stop-color="#B0E355"/>
<stop offset="0.21" stop-color="#ADE152"/>
<stop offset="0.32" stop-color="#A2DA4A"/>
<stop offset="0.42" stop-color="#91CE3B"/>
<stop offset="0.52" stop-color="#79BE27"/>
<stop offset="0.61" stop-color="#5AA90D"/>
<stop offset="0.65" stop-color="#4A9F00"/>
<stop offset="1" stop-color="#346D0A"/>
</linearGradient>
<linearGradient id="paint8_linear_86_448" x1="-17.8095" y1="29.5659" x2="4.43186" y2="6.65443" gradientUnits="userSpaceOnUse">
<stop offset="0.08" stop-color="#B0E355"/>
<stop offset="0.21" stop-color="#ADE152"/>
<stop offset="0.32" stop-color="#A2DA4A"/>
<stop offset="0.42" stop-color="#91CE3B"/>
<stop offset="0.52" stop-color="#79BE27"/>
<stop offset="0.61" stop-color="#5AA90D"/>
<stop offset="0.65" stop-color="#4A9F00"/>
<stop offset="1" stop-color="#346D0A"/>
</linearGradient>
<linearGradient id="paint9_linear_86_448" x1="-17.8364" y1="29.5396" x2="4.40496" y2="6.62821" gradientUnits="userSpaceOnUse">
<stop offset="0.08" stop-color="#B0E355"/>
<stop offset="0.21" stop-color="#ADE152"/>
<stop offset="0.32" stop-color="#A2DA4A"/>
<stop offset="0.42" stop-color="#91CE3B"/>
<stop offset="0.52" stop-color="#79BE27"/>
<stop offset="0.61" stop-color="#5AA90D"/>
<stop offset="0.65" stop-color="#4A9F00"/>
<stop offset="1" stop-color="#346D0A"/>
</linearGradient>
<linearGradient id="paint10_linear_86_448" x1="-17.8331" y1="29.5418" x2="4.4083" y2="6.63034" gradientUnits="userSpaceOnUse">
<stop offset="0.08" stop-color="#B0E355"/>
<stop offset="0.21" stop-color="#ADE152"/>
<stop offset="0.32" stop-color="#A2DA4A"/>
<stop offset="0.42" stop-color="#91CE3B"/>
<stop offset="0.52" stop-color="#79BE27"/>
<stop offset="0.61" stop-color="#5AA90D"/>
<stop offset="0.65" stop-color="#4A9F00"/>
<stop offset="1" stop-color="#346D0A"/>
</linearGradient>
<linearGradient id="paint11_linear_86_448" x1="-17.9985" y1="29.3817" x2="4.24288" y2="6.47024" gradientUnits="userSpaceOnUse">
<stop offset="0.08" stop-color="#B0E355"/>
<stop offset="0.21" stop-color="#ADE152"/>
<stop offset="0.32" stop-color="#A2DA4A"/>
<stop offset="0.42" stop-color="#91CE3B"/>
<stop offset="0.52" stop-color="#79BE27"/>
<stop offset="0.61" stop-color="#5AA90D"/>
<stop offset="0.65" stop-color="#4A9F00"/>
<stop offset="1" stop-color="#346D0A"/>
</linearGradient>
<linearGradient id="paint12_linear_86_448" x1="-18.321" y1="29.0714" x2="3.92254" y2="6.15643" gradientUnits="userSpaceOnUse">
<stop offset="0.08" stop-color="#B0E355"/>
<stop offset="0.21" stop-color="#ADE152"/>
<stop offset="0.32" stop-color="#A2DA4A"/>
<stop offset="0.42" stop-color="#91CE3B"/>
<stop offset="0.52" stop-color="#79BE27"/>
<stop offset="0.61" stop-color="#5AA90D"/>
<stop offset="0.65" stop-color="#4A9F00"/>
<stop offset="1" stop-color="#346D0A"/>
</linearGradient>
<linearGradient id="paint13_linear_86_448" x1="-18.0066" y1="29.3718" x2="4.2348" y2="6.46031" gradientUnits="userSpaceOnUse">
<stop offset="0.08" stop-color="#B0E355"/>
<stop offset="0.21" stop-color="#ADE152"/>
<stop offset="0.32" stop-color="#A2DA4A"/>
<stop offset="0.42" stop-color="#91CE3B"/>
<stop offset="0.52" stop-color="#79BE27"/>
<stop offset="0.61" stop-color="#5AA90D"/>
<stop offset="0.65" stop-color="#4A9F00"/>
<stop offset="1" stop-color="#346D0A"/>
</linearGradient>
<linearGradient id="paint14_linear_86_448" x1="-18.8853" y1="28.5152" x2="3.35039" y2="5.60507" gradientUnits="userSpaceOnUse">
<stop offset="0.08" stop-color="#B0E355"/>
<stop offset="0.21" stop-color="#ADE152"/>
<stop offset="0.32" stop-color="#A2DA4A"/>
<stop offset="0.42" stop-color="#91CE3B"/>
<stop offset="0.52" stop-color="#79BE27"/>
<stop offset="0.61" stop-color="#5AA90D"/>
<stop offset="0.65" stop-color="#4A9F00"/>
<stop offset="1" stop-color="#346D0A"/>
</linearGradient>
<radialGradient id="paint15_radial_86_448" cx="0" cy="0" r="1" gradientTransform="matrix(-20.9534 6.77672 -6.82435 -20.8072 18.4354 21.3133)" gradientUnits="userSpaceOnUse">
<stop offset="0.54" stop-color="#00435C"/>
<stop offset="0.58" stop-color="#08475D"/>
<stop offset="0.62" stop-color="#1E5161"/>
<stop offset="0.68" stop-color="#416166"/>
<stop offset="0.75" stop-color="#72786E"/>
<stop offset="0.83" stop-color="#B09478"/>
<stop offset="0.87" stop-color="#D3A47E"/>
</radialGradient>
</defs>
</svg>
