<svg width="66" height="71" viewBox="0 0 66 71" fill="none" xmlns="http://www.w3.org/2000/svg">
<g opacity="0.85">
<path d="M1.97534 70.2524C1.68814 63.0277 14.1742 41.0546 32.5682 31.3989C43.6453 25.4145 53.1721 16.9583 60.3986 6.69616C60.3986 6.41097 60.3986 6.26159 60.3986 6.26159C56.9659 11.2456 30.216 7.87765 11.945 22.4223C-5.87458 36.5459 1.53771 68.4327 1.97534 70.2524Z" fill="url(#paint0_linear_86_416)"/>
<path d="M32.5681 31.3991C14.1741 41.0683 1.68804 63.0278 1.97523 70.2526V70.3341C7.18573 58.5463 34.5374 54.7031 46.5448 45.8894C62.1353 34.4411 60.6719 10.2272 60.3711 6.69634C53.1524 16.9553 43.6352 25.4113 32.5681 31.3991Z" fill="url(#paint1_linear_86_416)"/>
<path d="M52.6171 16.5555L38.49 14.532C38.4545 14.524 38.4224 14.5054 38.398 14.4787C38.3735 14.452 38.3579 14.4185 38.3532 14.3827C38.3532 14.3538 38.3647 14.3262 38.3852 14.3058C38.4058 14.2855 38.4336 14.274 38.4626 14.274L52.5077 15.3469C52.6813 15.3606 52.8449 15.4327 52.9717 15.5512C53.0985 15.6697 53.1809 15.8275 53.2052 15.9987C53.2193 16.0737 53.2151 16.151 53.1929 16.224C53.1706 16.297 53.131 16.3637 53.0773 16.4183C53.0237 16.4729 52.9576 16.5138 52.8846 16.5377C52.8117 16.5616 52.734 16.5677 52.6582 16.5555H52.6171Z" fill="url(#paint2_linear_86_416)"/>
<path d="M45.3962 22.7484L28.9852 20.5619C28.9506 20.5523 28.9194 20.5332 28.8952 20.5067C28.871 20.4803 28.8548 20.4477 28.8485 20.4125C28.8518 20.3825 28.8663 20.3548 28.889 20.3348C28.9117 20.3147 28.9411 20.3037 28.9715 20.3039L45.3826 21.5533C45.5553 21.5694 45.7177 21.6422 45.844 21.7603C45.9704 21.8784 46.0534 22.0349 46.08 22.2052C46.0888 22.2804 46.0803 22.3566 46.0552 22.4281C46.0301 22.4996 45.9891 22.5645 45.9352 22.6181C45.8813 22.6716 45.8158 22.7124 45.7438 22.7373C45.6718 22.7622 45.5951 22.7706 45.5193 22.7619L45.3962 22.7484Z" fill="url(#paint3_linear_86_416)"/>
<path d="M36.5069 29.5114L20.6019 26.1298C20.5655 26.1238 20.5322 26.1058 20.5074 26.0787C20.4826 26.0516 20.4677 26.017 20.4651 25.9805C20.4645 25.9653 20.4675 25.9502 20.4739 25.9365C20.4803 25.9228 20.49 25.9107 20.502 25.9014C20.514 25.8921 20.5282 25.8858 20.5431 25.883C20.5581 25.8802 20.5736 25.881 20.5882 25.8854L36.4248 28.2484C36.5953 28.277 36.7517 28.3602 36.8702 28.4852C36.9887 28.6102 37.0628 28.7703 37.0813 28.941C37.0852 29.0183 37.0712 29.0955 37.0401 29.1665C37.0091 29.2376 36.9619 29.3005 36.9024 29.3505C36.8428 29.4005 36.7724 29.4361 36.6967 29.4545C36.621 29.473 36.542 29.4739 36.4659 29.457L36.5069 29.5114Z" fill="url(#paint4_linear_86_416)"/>
<path d="M28.0141 34.5632L10.3859 35.9213C10.351 35.9195 10.3176 35.9066 10.2905 35.8846C10.2635 35.8627 10.2442 35.8327 10.2355 35.799C10.2287 35.7849 10.2256 35.7693 10.2263 35.7536C10.2271 35.738 10.2317 35.7227 10.2399 35.7093C10.248 35.6958 10.2593 35.6846 10.2729 35.6766C10.2864 35.6685 10.3018 35.664 10.3176 35.6632L27.6448 33.3274C27.8189 33.3173 27.9916 33.3634 28.1371 33.4589C28.2825 33.5543 28.3929 33.694 28.4517 33.857C28.4821 33.9271 28.4955 34.0033 28.4909 34.0794C28.4864 34.1556 28.4639 34.2296 28.4254 34.2956C28.3868 34.3616 28.3333 34.4177 28.269 34.4594C28.2047 34.5012 28.1315 34.5274 28.0551 34.5361L28.0141 34.5632Z" fill="url(#paint5_linear_86_416)"/>
<path d="M20.8617 40.1041L6.5978 43.6214C6.56389 43.6244 6.52987 43.6169 6.50047 43.5999C6.47107 43.5828 6.44774 43.5571 6.43369 43.5264C6.41446 43.5062 6.40373 43.4795 6.40373 43.4517C6.40373 43.4239 6.41446 43.3972 6.43369 43.377L20.2463 38.9362C20.4133 38.8954 20.5893 38.9139 20.7441 38.9882C20.8989 39.0626 21.0227 39.1883 21.0942 39.3436C21.136 39.4078 21.1629 39.4804 21.173 39.5562C21.1831 39.6319 21.1761 39.709 21.1526 39.7818C21.129 39.8545 21.0895 39.9212 21.0368 39.977C20.9842 40.0327 20.9196 40.0761 20.848 40.1041H20.8617Z" fill="url(#paint6_linear_86_416)"/>
<path d="M13.1212 49.0264L5.95503 51.2672C5.92048 51.2769 5.88355 51.274 5.85094 51.2591C5.81833 51.2441 5.7922 51.2181 5.77724 51.1857C5.7606 51.1643 5.75157 51.138 5.75157 51.111C5.75157 51.084 5.7606 51.0577 5.77724 51.0363L12.4784 47.8585C12.6358 47.7983 12.8098 47.7968 12.9682 47.8542C13.1266 47.9117 13.2587 48.0241 13.34 48.1708C13.3899 48.2295 13.4261 48.2985 13.4458 48.3728C13.4655 48.4471 13.4682 48.5248 13.4538 48.6003C13.4394 48.6757 13.4081 48.7471 13.3624 48.809C13.3167 48.871 13.2576 48.9221 13.1895 48.9585L13.1212 49.0264Z" fill="url(#paint7_linear_86_416)"/>
<path d="M53.6017 30.4619L51.8102 17.0581C51.7996 16.9831 51.8062 16.9066 51.8295 16.8345C51.8528 16.7624 51.8922 16.6964 51.9448 16.6416C51.9974 16.5867 52.0619 16.5444 52.1333 16.5177C52.2047 16.4911 52.2812 16.4808 52.3572 16.4877C52.5299 16.5038 52.6923 16.5767 52.8186 16.6947C52.945 16.8128 53.0281 16.9693 53.0547 17.1396L53.8616 30.4484C53.8617 30.4638 53.8585 30.4792 53.8521 30.4933C53.8458 30.5075 53.8365 30.5201 53.8248 30.5304C53.8132 30.5407 53.7995 30.5484 53.7846 30.553C53.7697 30.5576 53.754 30.5589 53.7385 30.557C53.7096 30.5535 53.682 30.543 53.6582 30.5264C53.6343 30.5098 53.6149 30.4877 53.6017 30.4619Z" fill="url(#paint8_linear_86_416)"/>
<path d="M45.2183 36.4237L43.5499 23.1285C43.5364 23.053 43.5409 22.9754 43.5632 22.902C43.5855 22.8286 43.6249 22.7615 43.6781 22.7059C43.7314 22.6504 43.797 22.6081 43.8698 22.5824C43.9425 22.5568 44.0203 22.5485 44.0969 22.5581C44.2705 22.5719 44.4341 22.6439 44.5609 22.7624C44.6877 22.8809 44.77 23.0388 44.7944 23.21L45.4645 36.4102C45.4646 36.4256 45.4614 36.441 45.455 36.4551C45.4487 36.4693 45.4394 36.4819 45.4277 36.4922C45.4161 36.5025 45.4024 36.5102 45.3875 36.5148C45.3726 36.5194 45.3569 36.5207 45.3414 36.5188C45.315 36.5133 45.2901 36.5019 45.2688 36.4854C45.2475 36.4689 45.2302 36.4478 45.2183 36.4237Z" fill="url(#paint9_linear_86_416)"/>
<path d="M38.0112 41.0684L36.2607 29.1584C36.2446 29.0837 36.2468 29.0063 36.2673 28.9326C36.2877 28.859 36.3257 28.7914 36.378 28.7354C36.4303 28.6795 36.4954 28.6368 36.5679 28.6112C36.6403 28.5855 36.7179 28.5776 36.794 28.588C36.9644 28.5981 37.1263 28.6654 37.253 28.7789C37.3798 28.8924 37.4639 29.0454 37.4915 29.2127L38.2574 41.0412C38.258 41.0563 38.255 41.0714 38.2486 41.0852C38.2421 41.0989 38.2325 41.1109 38.2205 41.1202C38.2084 41.1295 38.1943 41.1358 38.1793 41.1386C38.1643 41.1414 38.1489 41.1406 38.1343 41.1363C38.1097 41.1358 38.0857 41.1293 38.0643 41.1175C38.0428 41.1057 38.0246 41.0888 38.0112 41.0684Z" fill="url(#paint10_linear_86_416)"/>
<path d="M30.0519 47.4375L26.6329 34.6855C26.6068 34.6147 26.5981 34.5386 26.6075 34.4638C26.6169 34.3889 26.6441 34.3173 26.6868 34.2549C26.7296 34.1925 26.7867 34.1412 26.8534 34.1051C26.9201 34.069 26.9946 34.0491 27.0705 34.0473C27.2426 34.041 27.4118 34.0926 27.5508 34.1936C27.6897 34.2947 27.7904 34.4393 27.8364 34.6041L30.298 47.3696C30.3023 47.386 30.3027 47.4031 30.2991 47.4196C30.2955 47.4361 30.2881 47.4515 30.2775 47.4647C30.2669 47.4779 30.2534 47.4884 30.2379 47.4955C30.2225 47.5026 30.2056 47.506 30.1886 47.5054C30.162 47.506 30.1356 47.5001 30.1118 47.4883C30.088 47.4764 30.0674 47.459 30.0519 47.4375Z" fill="url(#paint11_linear_86_416)"/>
<path d="M21.2994 51.0227L19.6035 40.0769C19.5905 40.0027 19.595 39.9265 19.6165 39.8542C19.6381 39.782 19.6762 39.7157 19.7278 39.6604C19.7795 39.6052 19.8432 39.5626 19.9142 39.5359C19.9852 39.5092 20.0614 39.4992 20.1369 39.5066C20.3089 39.5161 20.4727 39.5829 20.6017 39.6963C20.7308 39.8096 20.8175 39.9629 20.848 40.1313L21.5592 50.9956C21.5592 51.0635 21.5592 51.1178 21.4361 51.1042C21.4085 51.1022 21.3817 51.0937 21.358 51.0796C21.3343 51.0654 21.3142 51.046 21.2994 51.0227Z" fill="url(#paint12_linear_86_416)"/>
<path d="M14.0784 56.0066L12.1774 48.4016C12.1538 48.3286 12.1478 48.2511 12.16 48.1754C12.1721 48.0996 12.2021 48.0278 12.2473 47.9657C12.2926 47.9035 12.3519 47.8528 12.4206 47.8177C12.4892 47.7825 12.5652 47.7639 12.6424 47.7633C12.8128 47.7655 12.9781 47.8222 13.1136 47.9249C13.249 48.0277 13.3476 48.171 13.3946 48.3337C13.401 48.3605 13.401 48.3884 13.3946 48.4152L14.3109 56.0202C14.3132 56.035 14.312 56.0501 14.3073 56.0644C14.3026 56.0786 14.2946 56.0916 14.284 56.1022C14.2733 56.1128 14.2603 56.1207 14.246 56.1253C14.2316 56.13 14.2164 56.1312 14.2015 56.1289C14.1707 56.1237 14.1423 56.1091 14.1203 56.0872C14.0982 56.0653 14.0836 56.0372 14.0784 56.0066Z" fill="url(#paint13_linear_86_416)"/>
<path d="M65.0073 1.92965L64.8705 2.1741C64.7885 2.33706 64.6517 2.56794 64.4739 2.8667C64.1183 3.45066 63.585 4.31981 62.8602 5.37907C60.8874 8.2942 58.7266 11.0795 56.3915 13.7174C53.095 17.4603 49.4703 20.9052 45.5602 24.0114C43.3375 25.7446 41.023 27.3584 38.6266 28.846L36.753 29.9868C36.1102 30.3398 35.4811 30.7201 34.8247 31.0732L30.9271 33.1646C28.425 34.5869 26.0341 36.1939 23.7746 37.972C21.6008 39.6852 19.5449 41.5408 17.6205 43.5264C14.2073 47.0611 11.1859 50.9492 8.60811 55.1241C6.75159 58.0963 5.11967 61.2011 3.72582 64.4131C3.21981 65.581 2.86422 66.5181 2.63173 67.1292C2.39923 67.7403 2.28983 68.1205 2.28983 68.1205C2.27682 68.1503 2.25768 68.1769 2.23361 68.1988C2.20954 68.2207 2.1811 68.2373 2.15014 68.2476C2.11918 68.2578 2.08638 68.2615 2.0539 68.2583C2.02142 68.2551 1.98999 68.2452 1.96162 68.2292C1.89774 68.2048 1.84472 68.1586 1.81213 68.0988C1.77953 68.0391 1.7695 67.9697 1.78383 67.9033C1.78383 67.9033 1.89326 67.5366 2.11208 66.8847C2.33089 66.2329 2.67278 65.2687 3.1651 64.0736C4.49092 60.7945 6.05878 57.6171 7.85591 54.5673C10.3706 50.2913 13.3318 46.2902 16.6905 42.6301C18.5984 40.6172 20.6407 38.7343 22.8036 36.9943C25.0672 35.1274 27.4671 33.4298 29.9834 31.9152L33.8264 29.7559L35.6863 28.6423L37.5051 27.488C39.825 25.9598 42.0576 24.305 44.1926 22.5311C47.9594 19.3996 51.4377 15.941 54.5863 12.1964C56.8162 9.56088 58.8719 6.78468 60.7404 3.88523C61.4242 2.82596 61.9166 1.98397 62.2448 1.4136L62.614 0.74815L62.7371 0.530873C62.8246 0.399548 62.9383 0.287396 63.0711 0.201321C63.2039 0.115238 63.353 0.0570567 63.5093 0.0303385C63.6656 0.00362803 63.8257 0.00895335 63.9798 0.0459864C64.134 0.0830195 64.2788 0.150982 64.4055 0.245686C64.6996 0.404743 64.9247 0.665417 65.0382 0.978298C65.1516 1.29119 65.1455 1.63453 65.021 1.94323L65.0073 1.92965Z" fill="url(#paint14_linear_86_416)"/>
<path d="M2.00267 70.3341C7.21316 58.5463 34.5649 54.7031 46.5722 45.8894C60.3849 35.7448 60.8088 15.5779 60.5079 8.6655C61.4379 7.44326 62.2311 6.31609 62.8602 5.37905C63.4893 4.442 64.1184 3.45063 64.4739 2.86667C64.6517 2.56791 64.7885 2.33703 64.8705 2.17407L65.0073 1.92962C65.1318 1.62092 65.1379 1.27758 65.0245 0.964695C64.9111 0.651814 64.686 0.391133 64.3919 0.232067C64.2652 0.137364 64.1203 0.0694088 63.9662 0.0323757C63.812 -0.00465737 63.6519 -0.00997506 63.4956 0.0167355C63.3393 0.0434536 63.1902 0.101635 63.0574 0.187718C62.9246 0.273793 62.8109 0.385937 62.7234 0.517262L62.6003 0.734547L62.2311 1.39998C61.9029 1.97036 61.4106 2.75802 60.7268 3.87162C60.043 4.98521 59.1267 6.28893 57.9916 7.78277C50.3331 10.689 27.8363 9.68402 11.8219 22.4224C-5.95668 36.5461 1.4693 68.4328 1.90693 70.2526L2.00267 70.3341Z" fill="url(#paint15_radial_86_416)" style="mix-blend-mode:screen"/>
</g>
<defs>
<linearGradient id="paint0_linear_86_416" x1="-11.9478" y1="20.9808" x2="67.279" y2="-3.15188" gradientUnits="userSpaceOnUse">
<stop offset="0.08" stop-color="#B0E355"/>
<stop offset="0.21" stop-color="#ADE152"/>
<stop offset="0.32" stop-color="#A2DA4A"/>
<stop offset="0.42" stop-color="#91CE3B"/>
<stop offset="0.52" stop-color="#79BE27"/>
<stop offset="0.61" stop-color="#5AA90D"/>
<stop offset="0.65" stop-color="#4A9F00"/>
<stop offset="1" stop-color="#346D0A"/>
</linearGradient>
<linearGradient id="paint1_linear_86_416" x1="19.116" y1="59.8498" x2="28.6351" y2="-12.19" gradientUnits="userSpaceOnUse">
<stop offset="0.08" stop-color="#B0E355"/>
<stop offset="0.21" stop-color="#ADE152"/>
<stop offset="0.32" stop-color="#A2DA4A"/>
<stop offset="0.42" stop-color="#91CE3B"/>
<stop offset="0.52" stop-color="#79BE27"/>
<stop offset="0.61" stop-color="#5AA90D"/>
<stop offset="0.65" stop-color="#4A9F00"/>
<stop offset="1" stop-color="#346D0A"/>
</linearGradient>
<linearGradient id="paint2_linear_86_416" x1="-28.0845" y1="37.4446" x2="31.5354" y2="-6.35749" gradientUnits="userSpaceOnUse">
<stop offset="0.08" stop-color="#B0E355"/>
<stop offset="0.21" stop-color="#ADE152"/>
<stop offset="0.32" stop-color="#A2DA4A"/>
<stop offset="0.42" stop-color="#91CE3B"/>
<stop offset="0.52" stop-color="#79BE27"/>
<stop offset="0.61" stop-color="#5AA90D"/>
<stop offset="0.65" stop-color="#4A9F00"/>
<stop offset="1" stop-color="#346D0A"/>
</linearGradient>
<linearGradient id="paint3_linear_86_416" x1="-28.1139" y1="37.4065" x2="31.5049" y2="-6.40912" gradientUnits="userSpaceOnUse">
<stop offset="0.08" stop-color="#B0E355"/>
<stop offset="0.21" stop-color="#ADE152"/>
<stop offset="0.32" stop-color="#A2DA4A"/>
<stop offset="0.42" stop-color="#91CE3B"/>
<stop offset="0.52" stop-color="#79BE27"/>
<stop offset="0.61" stop-color="#5AA90D"/>
<stop offset="0.65" stop-color="#4A9F00"/>
<stop offset="1" stop-color="#346D0A"/>
</linearGradient>
<linearGradient id="paint4_linear_86_416" x1="-28.1733" y1="37.3165" x2="31.4465" y2="-6.48566" gradientUnits="userSpaceOnUse">
<stop offset="0.08" stop-color="#B0E355"/>
<stop offset="0.21" stop-color="#ADE152"/>
<stop offset="0.32" stop-color="#A2DA4A"/>
<stop offset="0.42" stop-color="#91CE3B"/>
<stop offset="0.52" stop-color="#79BE27"/>
<stop offset="0.61" stop-color="#5AA90D"/>
<stop offset="0.65" stop-color="#4A9F00"/>
<stop offset="1" stop-color="#346D0A"/>
</linearGradient>
<linearGradient id="paint5_linear_86_416" x1="-27.9898" y1="37.5658" x2="31.6299" y2="-6.23635" gradientUnits="userSpaceOnUse">
<stop offset="0.08" stop-color="#B0E355"/>
<stop offset="0.21" stop-color="#ADE152"/>
<stop offset="0.32" stop-color="#A2DA4A"/>
<stop offset="0.42" stop-color="#91CE3B"/>
<stop offset="0.52" stop-color="#79BE27"/>
<stop offset="0.61" stop-color="#5AA90D"/>
<stop offset="0.65" stop-color="#4A9F00"/>
<stop offset="1" stop-color="#346D0A"/>
</linearGradient>
<linearGradient id="paint6_linear_86_416" x1="-26.7849" y1="39.2159" x2="32.8411" y2="-4.59334" gradientUnits="userSpaceOnUse">
<stop offset="0.08" stop-color="#B0E355"/>
<stop offset="0.21" stop-color="#ADE152"/>
<stop offset="0.32" stop-color="#A2DA4A"/>
<stop offset="0.42" stop-color="#91CE3B"/>
<stop offset="0.52" stop-color="#79BE27"/>
<stop offset="0.61" stop-color="#5AA90D"/>
<stop offset="0.65" stop-color="#4A9F00"/>
<stop offset="1" stop-color="#346D0A"/>
</linearGradient>
<linearGradient id="paint7_linear_86_416" x1="-24.3113" y1="42.5722" x2="35.3085" y2="-1.23017" gradientUnits="userSpaceOnUse">
<stop offset="0.08" stop-color="#B0E355"/>
<stop offset="0.21" stop-color="#ADE152"/>
<stop offset="0.32" stop-color="#A2DA4A"/>
<stop offset="0.42" stop-color="#91CE3B"/>
<stop offset="0.52" stop-color="#79BE27"/>
<stop offset="0.61" stop-color="#5AA90D"/>
<stop offset="0.65" stop-color="#4A9F00"/>
<stop offset="1" stop-color="#346D0A"/>
</linearGradient>
<linearGradient id="paint8_linear_86_416" x1="-21.6382" y1="46.2168" x2="37.9807" y2="2.40125" gradientUnits="userSpaceOnUse">
<stop offset="0.08" stop-color="#B0E355"/>
<stop offset="0.21" stop-color="#ADE152"/>
<stop offset="0.32" stop-color="#A2DA4A"/>
<stop offset="0.42" stop-color="#91CE3B"/>
<stop offset="0.52" stop-color="#79BE27"/>
<stop offset="0.61" stop-color="#5AA90D"/>
<stop offset="0.65" stop-color="#4A9F00"/>
<stop offset="1" stop-color="#346D0A"/>
</linearGradient>
<linearGradient id="paint9_linear_86_416" x1="-21.6896" y1="46.1465" x2="37.9303" y2="2.34438" gradientUnits="userSpaceOnUse">
<stop offset="0.08" stop-color="#B0E355"/>
<stop offset="0.21" stop-color="#ADE152"/>
<stop offset="0.32" stop-color="#A2DA4A"/>
<stop offset="0.42" stop-color="#91CE3B"/>
<stop offset="0.52" stop-color="#79BE27"/>
<stop offset="0.61" stop-color="#5AA90D"/>
<stop offset="0.65" stop-color="#4A9F00"/>
<stop offset="1" stop-color="#346D0A"/>
</linearGradient>
<linearGradient id="paint10_linear_86_416" x1="-21.6824" y1="46.1529" x2="37.9374" y2="2.35076" gradientUnits="userSpaceOnUse">
<stop offset="0.08" stop-color="#B0E355"/>
<stop offset="0.21" stop-color="#ADE152"/>
<stop offset="0.32" stop-color="#A2DA4A"/>
<stop offset="0.42" stop-color="#91CE3B"/>
<stop offset="0.52" stop-color="#79BE27"/>
<stop offset="0.61" stop-color="#5AA90D"/>
<stop offset="0.65" stop-color="#4A9F00"/>
<stop offset="1" stop-color="#346D0A"/>
</linearGradient>
<linearGradient id="paint11_linear_86_416" x1="-21.9983" y1="45.7245" x2="37.6216" y2="1.92215" gradientUnits="userSpaceOnUse">
<stop offset="0.08" stop-color="#B0E355"/>
<stop offset="0.21" stop-color="#ADE152"/>
<stop offset="0.32" stop-color="#A2DA4A"/>
<stop offset="0.42" stop-color="#91CE3B"/>
<stop offset="0.52" stop-color="#79BE27"/>
<stop offset="0.61" stop-color="#5AA90D"/>
<stop offset="0.65" stop-color="#4A9F00"/>
<stop offset="1" stop-color="#346D0A"/>
</linearGradient>
<linearGradient id="paint12_linear_86_416" x1="-22.6088" y1="44.8866" x2="37.0114" y2="1.08338" gradientUnits="userSpaceOnUse">
<stop offset="0.08" stop-color="#B0E355"/>
<stop offset="0.21" stop-color="#ADE152"/>
<stop offset="0.32" stop-color="#A2DA4A"/>
<stop offset="0.42" stop-color="#91CE3B"/>
<stop offset="0.52" stop-color="#79BE27"/>
<stop offset="0.61" stop-color="#5AA90D"/>
<stop offset="0.65" stop-color="#4A9F00"/>
<stop offset="1" stop-color="#346D0A"/>
</linearGradient>
<linearGradient id="paint13_linear_86_416" x1="-22.0063" y1="45.7048" x2="37.6064" y2="1.8961" gradientUnits="userSpaceOnUse">
<stop offset="0.08" stop-color="#B0E355"/>
<stop offset="0.21" stop-color="#ADE152"/>
<stop offset="0.32" stop-color="#A2DA4A"/>
<stop offset="0.42" stop-color="#91CE3B"/>
<stop offset="0.52" stop-color="#79BE27"/>
<stop offset="0.61" stop-color="#5AA90D"/>
<stop offset="0.65" stop-color="#4A9F00"/>
<stop offset="1" stop-color="#346D0A"/>
</linearGradient>
<linearGradient id="paint14_linear_86_416" x1="-23.7014" y1="43.4102" x2="35.9185" y2="-0.392064" gradientUnits="userSpaceOnUse">
<stop offset="0.08" stop-color="#B0E355"/>
<stop offset="0.21" stop-color="#ADE152"/>
<stop offset="0.32" stop-color="#A2DA4A"/>
<stop offset="0.42" stop-color="#91CE3B"/>
<stop offset="0.52" stop-color="#79BE27"/>
<stop offset="0.61" stop-color="#5AA90D"/>
<stop offset="0.65" stop-color="#4A9F00"/>
<stop offset="1" stop-color="#346D0A"/>
</linearGradient>
<radialGradient id="paint15_radial_86_416" cx="0" cy="0" r="1" gradientTransform="matrix(-50.7718 8.02143 -8.07781 -50.4175 36.3065 34.5346)" gradientUnits="userSpaceOnUse">
<stop offset="0.54" stop-color="#00435C"/>
<stop offset="0.58" stop-color="#08475D"/>
<stop offset="0.62" stop-color="#1E5161"/>
<stop offset="0.68" stop-color="#416166"/>
<stop offset="0.75" stop-color="#72786E"/>
<stop offset="0.83" stop-color="#B09478"/>
<stop offset="0.87" stop-color="#D3A47E"/>
</radialGradient>
</defs>
</svg>
