<svg width="1241" height="214" viewBox="0 0 1241 214" fill="none" xmlns="http://www.w3.org/2000/svg">
<path fill-rule="evenodd" clip-rule="evenodd" d="M470.899 204.304C470.899 204.304 255.294 195.624 22.9999 139.201L470.899 204.304Z" fill="white"/>
<path fill-rule="evenodd" clip-rule="evenodd" d="M1051.2 152.789C1051.2 152.789 830.459 180.363 686.157 169.831L1051.2 152.789Z" fill="white"/>
<path fill-rule="evenodd" clip-rule="evenodd" d="M610.222 165.17C610.222 165.17 387.855 171.406 245.23 147.056L610.222 165.17Z" fill="white"/>
<path fill-rule="evenodd" clip-rule="evenodd" d="M1241 92.953C1241 92.953 1020.26 120.528 875.957 109.995L1241 92.953Z" fill="white"/>
<path fill-rule="evenodd" clip-rule="evenodd" d="M1002.95 123.07C1002.95 123.07 821.198 150.043 636.52 137.652C451.841 125.262 116 19.0227 116 19.0227C116 19.0227 403.447 112.385 637.85 129.978C872.253 147.572 1002.95 123.07 1002.95 123.07Z" fill="white"/>
<path fill-rule="evenodd" clip-rule="evenodd" d="M1194.77 161.425C1194.77 161.425 1007.23 181.843 777.531 181.624L971.346 179.311C971.346 179.311 831.117 193.185 720 190.445C720 190.445 1012.02 190.064 1188.31 177.727L1194.77 161.425Z" fill="white"/>
<path fill-rule="evenodd" clip-rule="evenodd" d="M486.979 77.106C486.979 77.106 788.436 65.9393 908.598 86.0711L486.979 77.106Z" fill="white" style="mix-blend-mode:screen"/>
<path fill-rule="evenodd" clip-rule="evenodd" d="M-48.0001 49.1546C-48.0001 49.1546 253.457 37.9878 373.619 58.1196L-48.0001 49.1546Z" fill="white" style="mix-blend-mode:screen"/>
<path fill-rule="evenodd" clip-rule="evenodd" d="M354.797 16.1443C354.797 16.1443 646.336 -4.42975 834.96 24.0681L354.797 16.1443Z" fill="white"/>
<path fill-rule="evenodd" clip-rule="evenodd" d="M635.455 57.8471C635.455 57.8471 876.343 21.7228 1117.64 62.7015L635.455 57.8471Z" fill="white"/>
</svg>
